<svg xmlns="http://www.w3.org/2000/svg" viewBox="0 0 100 100">
  <circle cx="50" cy="50" r="46" fill="#1a0808" stroke="#a02020" stroke-width="4"/>
  <path d="M50 65 a18,18 0 1,1 18,-18" fill="none" stroke="#e04040" stroke-width="4" stroke-linecap="round"/>
  <path d="M50 75 a28,28 0 1,1 28,-28" fill="none" stroke="#a02020" stroke-width="2.5" stroke-linecap="round"/>
  <polygon points="50,15 53,23 62,23 55,29 58,38 50,32 42,38 45,29 38,23 47,23" fill="#e8c020"/>
  <polygon points="20,48 22,53 28,53 23,56 25,62 20,58 15,62 17,56 12,53 18,53" fill="#e8c020" opacity="0.7"/>
  <polygon points="80,38 82,43 88,43 83,46 85,52 80,48 75,52 77,46 72,43 78,43" fill="#e8c020" opacity="0.5"/>
</svg>
